<svg width="79" height="28" viewBox="0 0 79 28" fill="none" xmlns="http://www.w3.org/2000/svg">
<path d="M46 7.16991L45.4973 7.7257C45.5005 7.72942 45.5036 7.7331 45.5068 7.73674L46 7.16991ZM47.3673 9.87321C47.6397 10.1861 48.0815 10.186 48.3539 9.873C48.6263 9.55996 48.6262 9.05249 48.3537 8.73955L47.3673 9.87321ZM43.6056 20.871C42.1957 19.5942 40.654 18.3473 39.431 16.7652C38.2318 15.214 37.3953 13.4041 37.3953 11.0559H36C36 13.9043 37.033 16.0774 38.3876 17.8296C39.7184 19.5509 41.4147 20.9279 42.7418 22.1298L43.6056 20.871ZM37.3953 11.0559C37.3953 8.75745 38.5259 6.82997 40.0692 6.01961C41.5684 5.23234 43.5829 5.44083 45.4973 7.7257L46.5027 6.61412C44.2312 3.90302 41.5945 3.4562 39.4891 4.56176C37.4276 5.64423 36 8.15774 36 11.0559H37.3953ZM42.7418 22.1298C43.2183 22.5613 43.7298 23.0215 44.2482 23.3694C44.7664 23.7172 45.3578 24 46 24V22.3971C45.712 22.3971 45.3731 22.2681 44.9522 21.9854C44.5314 21.703 44.095 21.3141 43.6056 20.871L42.7418 22.1298ZM49.2582 22.1298C50.5853 20.9279 52.2817 19.5509 53.6124 17.8296C54.967 16.0774 56 13.9043 56 11.0559H54.6047C54.6047 13.4041 53.7682 15.214 52.569 16.7652C51.346 18.3473 49.8043 19.5942 48.3944 20.871L49.2582 22.1298ZM56 11.0559C56 8.15774 54.5724 5.64423 52.5109 4.56176C50.4055 3.4562 47.7688 3.90302 45.4973 6.61412L46.5027 7.7257C48.417 5.44083 50.4315 5.23234 51.9308 6.01961C53.474 6.82997 54.6047 8.75745 54.6047 11.0559H56ZM48.3944 20.871C47.905 21.3141 47.4686 21.703 47.0478 21.9854C46.6269 22.2681 46.288 22.3971 46 22.3971V24C46.6422 24 47.2336 23.7172 47.7518 23.3694C48.2702 23.0215 48.7817 22.5613 49.2582 22.1298L48.3944 20.871ZM45.5068 7.73674L47.3673 9.87321L48.3537 8.73955L46.4932 6.6031L45.5068 7.73674Z" fill="#8667F2"/>
<path d="M11.6573 10.06C11.6573 11.0333 11.3507 11.8067 10.7373 12.38C10.124 12.94 9.30401 13.3 8.27734 13.46V13.54C9.47734 13.7 10.3907 14.0733 11.0173 14.66C11.644 15.2467 11.9573 16.0133 11.9573 16.96C11.9573 17.8 11.744 18.54 11.3173 19.18C10.8907 19.8067 10.2507 20.3 9.39734 20.66C8.54401 21.02 7.47734 21.2 6.19734 21.2C5.42401 21.2 4.68401 21.14 3.97734 21.02C3.28401 20.9133 2.63734 20.7133 2.03734 20.42V18.78C2.45068 18.98 2.89068 19.1533 3.35734 19.3C3.83734 19.4333 4.31734 19.54 4.79734 19.62C5.27734 19.6867 5.73734 19.72 6.17734 19.72C7.45734 19.72 8.42401 19.48 9.07734 19C9.74401 18.52 10.0773 17.84 10.0773 16.96C10.0773 16.0533 9.69068 15.3933 8.91734 14.98C8.14401 14.5667 7.06401 14.36 5.67734 14.36H3.63734V12.86H5.57734C6.52401 12.86 7.30401 12.7533 7.91734 12.54C8.54401 12.3267 9.01068 12.0267 9.31734 11.64C9.63734 11.24 9.79734 10.7733 9.79734 10.24C9.79734 9.52 9.53068 8.96667 8.99734 8.58C8.46401 8.19333 7.77068 8 6.91734 8C6.02401 8 5.27734 8.11333 4.67734 8.34C4.09068 8.56667 3.51734 8.86 2.95734 9.22L2.09734 8C2.47068 7.72 2.89734 7.47333 3.37734 7.26C3.87068 7.03333 4.41734 6.85333 5.01734 6.72C5.61734 6.58667 6.25734 6.52 6.93734 6.52C7.96401 6.52 8.82401 6.67333 9.51734 6.98C10.224 7.28667 10.7573 7.70667 11.1173 8.24C11.4773 8.76 11.6573 9.36667 11.6573 10.06ZM18.7952 10.1C20.1018 10.1 21.0685 10.3867 21.6952 10.96C22.3218 11.5333 22.6352 12.4467 22.6352 13.7V21H21.3552L21.0152 19.48H20.9352C20.6285 19.8667 20.3085 20.1933 19.9752 20.46C19.6552 20.7133 19.2818 20.9 18.8552 21.02C18.4418 21.14 17.9352 21.2 17.3352 21.2C16.6952 21.2 16.1152 21.0867 15.5952 20.86C15.0885 20.6333 14.6885 20.2867 14.3952 19.82C14.1018 19.34 13.9552 18.74 13.9552 18.02C13.9552 16.9533 14.3752 16.1333 15.2152 15.56C16.0552 14.9733 17.3485 14.6533 19.0952 14.6L20.9152 14.54V13.9C20.9152 13.0067 20.7218 12.3867 20.3352 12.04C19.9485 11.6933 19.4018 11.52 18.6952 11.52C18.1352 11.52 17.6018 11.6067 17.0952 11.78C16.5885 11.94 16.1152 12.1267 15.6752 12.34L15.1352 11.02C15.6018 10.7667 16.1552 10.5533 16.7952 10.38C17.4352 10.1933 18.1018 10.1 18.7952 10.1ZM19.3152 15.82C17.9818 15.8733 17.0552 16.0867 16.5352 16.46C16.0285 16.8333 15.7752 17.36 15.7752 18.04C15.7752 18.64 15.9552 19.08 16.3152 19.36C16.6885 19.64 17.1618 19.78 17.7352 19.78C18.6418 19.78 19.3952 19.5333 19.9952 19.04C20.5952 18.5333 20.8952 17.76 20.8952 16.72V15.76L19.3152 15.82ZM25.3861 14.56C25.3861 13 25.5394 11.6733 25.8461 10.58C26.1661 9.47333 26.6528 8.59333 27.3061 7.94C27.9728 7.27333 28.8261 6.82667 29.8661 6.6C30.7328 6.41333 31.5794 6.24667 32.4061 6.1C33.2328 5.95333 34.0061 5.82 34.7261 5.7L35.0261 7.24C34.6794 7.29333 34.2928 7.36 33.8661 7.44C33.4394 7.50667 33.0061 7.58 32.5661 7.66C32.1261 7.72667 31.6994 7.8 31.2861 7.88C30.8861 7.94667 30.5328 8.01333 30.2261 8.08C29.7861 8.17333 29.3928 8.33333 29.0461 8.56C28.6994 8.77333 28.3994 9.06667 28.1461 9.44C27.9061 9.81333 27.7128 10.2733 27.5661 10.82C27.4194 11.3667 27.3328 12.0133 27.3061 12.76H27.4261C27.6128 12.5067 27.8661 12.2467 28.1861 11.98C28.5194 11.7133 28.9128 11.4867 29.3661 11.3C29.8328 11.1133 30.3594 11.02 30.9461 11.02C31.8794 11.02 32.6528 11.2267 33.2661 11.64C33.8928 12.04 34.3594 12.6 34.6661 13.32C34.9861 14.04 35.1461 14.88 35.1461 15.84C35.1461 17.0267 34.9394 18.02 34.5261 18.82C34.1128 19.62 33.5394 20.22 32.8061 20.62C32.0728 21.0067 31.2194 21.2 30.2461 21.2C29.5128 21.2 28.8461 21.06 28.2461 20.78C27.6461 20.4867 27.1328 20.06 26.7061 19.5C26.2794 18.94 25.9528 18.2467 25.7261 17.42C25.4994 16.5933 25.3861 15.64 25.3861 14.56ZM30.3861 19.74C30.9728 19.74 31.4794 19.62 31.9061 19.38C32.3461 19.14 32.6861 18.7467 32.9261 18.2C33.1661 17.6533 33.2861 16.9267 33.2861 16.02C33.2861 14.9267 33.0794 14.0667 32.6661 13.44C32.2661 12.8 31.5994 12.48 30.6661 12.48C30.0794 12.48 29.5461 12.6133 29.0661 12.88C28.5861 13.1333 28.1861 13.4267 27.8661 13.76C27.5461 14.0933 27.3194 14.3733 27.1861 14.6C27.1861 15.2533 27.2328 15.8867 27.3261 16.5C27.4194 17.1133 27.5794 17.6667 27.8061 18.16C28.0461 18.64 28.3728 19.0267 28.7861 19.32C29.2128 19.6 29.7461 19.74 30.3861 19.74ZM66.1 11.76H62.6V21H60.86V11.76H57.4V10.28H66.1V11.76ZM72.2717 10.1C73.5784 10.1 74.5451 10.3867 75.1717 10.96C75.7984 11.5333 76.1117 12.4467 76.1117 13.7V21H74.8317L74.4917 19.48H74.4117C74.1051 19.8667 73.7851 20.1933 73.4517 20.46C73.1317 20.7133 72.7584 20.9 72.3317 21.02C71.9184 21.14 71.4117 21.2 70.8117 21.2C70.1717 21.2 69.5917 21.0867 69.0717 20.86C68.5651 20.6333 68.1651 20.2867 67.8717 19.82C67.5784 19.34 67.4317 18.74 67.4317 18.02C67.4317 16.9533 67.8517 16.1333 68.6917 15.56C69.5317 14.9733 70.8251 14.6533 72.5717 14.6L74.3917 14.54V13.9C74.3917 13.0067 74.1984 12.3867 73.8117 12.04C73.4251 11.6933 72.8784 11.52 72.1717 11.52C71.6117 11.52 71.0784 11.6067 70.5717 11.78C70.0651 11.94 69.5917 12.1267 69.1517 12.34L68.6117 11.02C69.0784 10.7667 69.6317 10.5533 70.2717 10.38C70.9117 10.1933 71.5784 10.1 72.2717 10.1ZM72.7917 15.82C71.4584 15.8733 70.5317 16.0867 70.0117 16.46C69.5051 16.8333 69.2517 17.36 69.2517 18.04C69.2517 18.64 69.4317 19.08 69.7917 19.36C70.1651 19.64 70.6384 19.78 71.2117 19.78C72.1184 19.78 72.8717 19.5333 73.4717 19.04C74.0717 18.5333 74.3717 17.76 74.3717 16.72V15.76L72.7917 15.82Z" fill="#8667F2"/>
</svg>
